<?xml version="1.0" standalone="no"?>
<!DOCTYPE svg PUBLIC "-//W3C//DTD SVG 20010904//EN"
 "http://www.w3.org/TR/2001/REC-SVG-20010904/DTD/svg10.dtd">
<svg version="1.0" xmlns="http://www.w3.org/2000/svg"
 width="3264.000000pt" height="3264.000000pt" viewBox="0 0 3264.000000 3264.000000"
 preserveAspectRatio="xMidYMid meet">
<metadata>
Created by potrace 1.14, written by Peter Selinger 2001-2017
</metadata>
<g transform="translate(0.000000,3264.000000) scale(0.100000,-0.100000)"
fill="#000000" stroke="none">
<path d="M0 16320 l0 -16320 16320 0 16320 0 0 16320 0 16320 -16320 0 -16320
0 0 -16320z m7901 6508 c13 -18 30 -44 37 -58 7 -14 23 -43 36 -65 14 -22 32
-53 41 -70 8 -16 27 -48 40 -70 14 -22 32 -53 41 -70 8 -16 26 -48 40 -70 13
-22 31 -53 40 -70 8 -16 26 -48 40 -70 13 -22 31 -54 39 -72 8 -17 19 -34 25
-38 6 -4 17 -21 25 -38 8 -18 26 -50 40 -72 13 -22 27 -47 31 -55 8 -16 54
-97 91 -158 12 -21 29 -50 37 -67 9 -16 27 -48 40 -70 14 -22 32 -53 40 -70 9
-16 26 -46 38 -65 31 -50 66 -111 80 -140 7 -14 18 -28 25 -33 6 -4 14 -21 18
-37 4 -16 10 -32 15 -35 5 -3 25 -36 46 -73 20 -37 40 -69 43 -72 7 -6 34 -52
61 -105 11 -22 29 -53 40 -70 11 -16 27 -45 36 -64 8 -19 22 -40 30 -48 8 -8
14 -20 14 -27 0 -7 9 -21 20 -31 11 -10 20 -26 20 -35 0 -10 8 -28 18 -41 19
-27 33 -49 62 -99 12 -19 32 -53 45 -75 13 -22 27 -47 31 -55 7 -15 90 -160
131 -228 12 -20 29 -50 38 -67 8 -16 26 -48 40 -70 14 -22 32 -53 41 -70 8
-16 26 -48 40 -70 13 -22 31 -53 40 -70 8 -16 26 -48 40 -70 13 -22 30 -54 38
-71 8 -17 22 -36 30 -44 9 -7 16 -20 16 -30 0 -9 9 -25 20 -35 11 -10 20 -24
20 -30 0 -7 9 -24 20 -38 11 -14 20 -32 20 -40 0 -8 7 -20 16 -27 8 -8 22 -27
30 -44 8 -17 25 -49 38 -71 14 -22 32 -53 40 -70 9 -16 27 -48 40 -70 14 -22
32 -53 41 -70 8 -16 27 -48 40 -70 14 -22 32 -53 41 -70 8 -16 26 -48 40 -70
13 -22 31 -53 39 -70 9 -16 29 -50 45 -75 17 -25 35 -57 41 -72 6 -16 15 -28
19 -28 5 0 11 -13 15 -29 3 -16 13 -35 21 -42 8 -7 22 -26 30 -43 8 -17 25
-49 39 -71 13 -22 29 -52 36 -67 6 -16 14 -28 18 -28 5 0 15 -17 24 -37 9 -21
28 -56 42 -78 13 -22 29 -52 36 -67 6 -16 15 -28 19 -28 5 0 14 -15 20 -34 6
-19 17 -37 24 -39 7 -3 17 -18 20 -34 4 -15 13 -35 20 -43 20 -24 106 -176
106 -187 0 -6 6 -13 14 -16 8 -3 17 -19 21 -36 3 -16 12 -35 20 -41 7 -6 26
-34 40 -62 15 -29 35 -63 44 -77 29 -44 41 -65 61 -106 11 -22 29 -53 40 -70
25 -38 55 -91 74 -131 8 -17 22 -36 30 -44 9 -7 16 -19 16 -27 0 -8 8 -27 18
-41 23 -36 38 -60 62 -102 12 -19 32 -53 45 -75 13 -22 27 -47 31 -55 8 -16
54 -97 91 -158 12 -21 29 -50 38 -67 8 -16 27 -48 40 -70 14 -22 32 -53 41
-70 8 -16 26 -48 40 -70 13 -22 31 -53 40 -70 8 -16 26 -48 40 -70 13 -22 31
-54 39 -72 8 -17 19 -34 25 -38 6 -4 17 -21 25 -38 8 -18 26 -50 39 -72 14
-22 32 -53 40 -70 9 -16 27 -48 40 -70 14 -22 32 -53 40 -70 9 -16 27 -48 40
-70 14 -22 32 -53 40 -70 9 -16 27 -48 40 -70 14 -22 32 -53 41 -70 8 -16 27
-48 40 -70 14 -22 32 -55 40 -72 8 -18 19 -33 24 -33 5 0 12 -12 15 -26 4 -14
16 -39 26 -55 11 -16 29 -42 40 -59 11 -16 20 -34 20 -39 0 -10 38 -72 59 -97
6 -7 17 -27 26 -45 8 -19 26 -52 39 -74 14 -22 32 -53 41 -70 42 -79 49 -90
55 -95 4 -3 15 -21 24 -40 9 -19 27 -53 41 -75 14 -22 30 -52 36 -67 6 -14 17
-29 25 -32 8 -3 14 -15 14 -26 0 -11 9 -29 19 -39 10 -10 22 -29 26 -41 4 -12
21 -43 38 -68 38 -56 60 -94 82 -144 10 -21 21 -38 25 -38 4 0 11 -11 14 -24
3 -14 12 -31 19 -38 14 -14 36 -51 62 -107 9 -19 23 -40 31 -48 8 -8 14 -20
14 -27 0 -7 9 -21 20 -31 11 -10 20 -24 20 -32 0 -8 8 -26 18 -41 30 -46 42
-66 57 -98 7 -17 21 -36 29 -44 9 -7 16 -20 16 -30 0 -9 9 -25 20 -35 11 -10
20 -23 20 -29 1 -6 16 -36 35 -66 19 -30 41 -68 50 -85 8 -16 26 -48 39 -70
14 -22 32 -53 40 -70 9 -16 27 -48 40 -70 14 -22 32 -53 41 -70 8 -16 27 -48
40 -70 14 -22 32 -53 41 -70 8 -16 26 -48 40 -70 13 -22 30 -54 38 -71 8 -17
22 -36 30 -44 9 -7 16 -19 16 -27 0 -7 8 -26 18 -41 31 -46 42 -66 57 -99 8
-17 19 -34 25 -38 6 -4 17 -21 25 -38 8 -18 26 -50 40 -72 13 -22 29 -52 36
-67 6 -16 15 -28 19 -28 5 0 14 -16 20 -36 7 -19 18 -38 26 -41 8 -3 14 -13
14 -22 0 -9 8 -28 17 -41 21 -30 46 -73 67 -117 8 -18 20 -33 25 -33 6 0 11
-8 11 -18 0 -10 8 -28 18 -42 22 -30 87 -145 107 -187 8 -18 19 -33 24 -33 5
0 12 -13 16 -29 3 -16 13 -35 21 -42 8 -7 22 -26 30 -43 26 -54 47 -90 61
-104 7 -7 13 -20 13 -27 0 -7 6 -20 14 -28 8 -8 22 -29 30 -48 9 -19 27 -52
41 -74 14 -22 30 -52 36 -67 6 -14 17 -29 25 -32 8 -3 14 -15 14 -26 0 -11 9
-28 20 -37 11 -10 20 -25 20 -34 0 -9 8 -27 18 -40 25 -36 40 -60 60 -99 9
-19 22 -38 29 -43 6 -4 14 -21 18 -37 4 -17 11 -30 16 -30 5 0 15 -15 23 -33
7 -18 26 -53 42 -78 16 -24 34 -55 41 -69 7 -14 24 -43 37 -65 14 -22 33 -56
44 -75 27 -48 49 -88 78 -135 13 -22 30 -54 38 -71 8 -17 22 -36 30 -44 9 -7
16 -19 16 -27 0 -8 9 -26 20 -40 11 -14 20 -31 20 -38 0 -6 9 -20 20 -30 11
-10 20 -26 20 -35 0 -10 7 -23 16 -30 8 -8 22 -27 30 -44 16 -33 41 -77 79
-141 13 -22 31 -53 39 -70 9 -16 27 -48 40 -70 14 -22 32 -53 40 -70 9 -16 27
-48 40 -70 14 -22 32 -53 41 -70 8 -16 27 -48 40 -70 14 -22 32 -53 41 -70 8
-16 26 -48 40 -70 13 -22 30 -54 38 -71 8 -17 22 -36 30 -44 9 -7 16 -20 16
-30 0 -9 9 -25 20 -35 11 -10 20 -26 20 -36 0 -10 6 -22 13 -26 6 -4 20 -24
30 -43 9 -19 28 -53 42 -75 13 -22 31 -53 40 -70 42 -79 49 -90 55 -95 4 -3
15 -21 24 -40 17 -36 40 -77 82 -145 13 -22 31 -55 39 -72 8 -18 19 -33 24
-33 5 0 12 -12 16 -27 3 -16 12 -35 19 -43 7 -8 26 -40 42 -70 16 -30 34 -58
41 -63 6 -4 14 -21 18 -38 4 -17 13 -33 20 -36 8 -2 17 -17 20 -33 3 -16 13
-34 22 -41 8 -7 19 -22 24 -34 5 -11 20 -38 34 -60 14 -22 32 -56 41 -75 9
-19 22 -39 30 -43 8 -4 14 -15 14 -23 0 -9 8 -28 18 -42 35 -54 43 -68 57 -98
7 -17 21 -36 29 -44 9 -7 16 -20 16 -30 0 -10 7 -23 16 -30 8 -8 22 -29 29
-47 8 -19 28 -55 45 -79 16 -25 30 -49 30 -53 0 -5 8 -19 19 -32 10 -13 23
-40 30 -60 12 -39 5 -61 -45 -144 -13 -22 -31 -53 -40 -70 -8 -16 -26 -48 -40
-70 -13 -22 -30 -54 -38 -71 -8 -17 -22 -36 -30 -44 -9 -7 -16 -20 -16 -29 -1
-21 -35 21 -56 66 -8 18 -18 33 -23 33 -5 0 -12 12 -16 27 -3 14 -15 38 -26
51 -10 14 -19 30 -19 37 0 6 -9 20 -20 30 -11 10 -20 26 -20 36 0 10 -5 21
-11 25 -6 3 -18 21 -26 38 -23 48 -49 94 -63 111 -12 14 -28 42 -64 110 -9 17
-27 48 -40 70 -14 22 -32 54 -40 70 -9 17 -27 48 -40 70 -14 22 -32 54 -40 70
-9 17 -27 48 -40 70 -14 22 -32 54 -41 70 -8 17 -27 48 -40 70 -14 22 -30 51
-37 65 -7 14 -18 28 -25 33 -6 4 -14 21 -18 38 -4 17 -13 33 -20 36 -8 2 -17
17 -20 33 -3 16 -13 34 -21 41 -8 7 -22 26 -30 43 -7 17 -23 45 -34 61 -11 17
-27 46 -36 65 -9 19 -20 37 -24 40 -4 3 -15 21 -24 40 -9 19 -25 49 -36 65
-11 17 -28 47 -37 67 -9 21 -20 38 -24 38 -4 0 -13 15 -19 34 -6 19 -17 37
-25 40 -8 3 -15 12 -15 19 0 13 -86 163 -109 191 -5 6 -13 24 -16 39 -4 15
-12 31 -19 35 -6 4 -17 18 -24 32 -17 32 -47 85 -77 135 -13 22 -31 57 -40 78
-10 20 -21 37 -25 37 -4 0 -13 12 -19 28 -7 15 -23 45 -36 67 -14 22 -31 54
-39 71 -8 17 -22 36 -30 44 -9 7 -16 21 -16 31 0 9 -6 24 -13 31 -14 14 -35
50 -61 105 -9 17 -20 34 -26 38 -6 4 -17 21 -26 38 -16 34 -40 78 -79 142 -13
22 -30 55 -39 73 -8 17 -20 32 -25 32 -6 0 -11 8 -11 19 0 10 -8 29 -18 42
-10 13 -23 35 -30 49 -7 14 -24 43 -37 65 -13 22 -31 55 -39 73 -8 17 -19 32
-24 32 -6 0 -13 12 -16 26 -4 14 -15 38 -24 53 -31 46 -42 65 -57 99 -9 17
-19 32 -24 32 -5 0 -12 13 -16 29 -3 16 -15 37 -26 47 -10 9 -19 25 -19 34 0
10 -7 23 -15 30 -8 6 -28 41 -45 76 -18 35 -35 64 -39 64 -5 0 -16 17 -25 38
-17 37 -36 72 -81 147 -13 22 -30 55 -39 73 -8 17 -20 32 -25 32 -6 0 -11 8
-11 18 0 10 -8 29 -17 42 -18 25 -41 65 -65 110 -7 14 -18 28 -25 33 -6 4 -14
21 -18 37 -4 16 -12 33 -18 37 -7 5 -27 37 -46 73 -19 36 -37 67 -40 70 -9 7
-38 60 -57 103 -9 20 -20 37 -24 37 -5 0 -14 16 -20 35 -6 19 -15 35 -20 35
-4 0 -13 12 -19 28 -7 15 -23 45 -36 67 -14 22 -33 57 -42 78 -9 20 -19 37
-24 37 -4 0 -12 12 -18 28 -7 15 -23 45 -36 67 -14 22 -31 54 -39 71 -8 17
-22 36 -30 43 -8 7 -18 26 -21 42 -4 16 -11 29 -16 29 -5 0 -16 15 -24 33 -8
17 -26 50 -39 72 -14 22 -32 54 -40 70 -9 17 -27 48 -41 70 -13 22 -32 54 -40
70 -9 17 -27 48 -41 70 -13 22 -31 54 -40 70 -8 17 -26 48 -40 70 -13 22 -31
54 -40 70 -8 17 -26 48 -40 70 -13 22 -31 54 -39 72 -8 17 -19 34 -25 38 -6 4
-17 21 -25 38 -8 18 -26 50 -39 72 -14 22 -32 54 -40 70 -9 17 -27 48 -40 70
-14 22 -32 54 -40 70 -9 17 -27 48 -40 70 -14 22 -31 55 -40 73 -8 17 -20 32
-25 32 -6 0 -11 8 -11 17 0 9 -10 33 -23 52 -41 65 -47 76 -62 109 -9 17 -19
32 -24 32 -5 0 -12 13 -16 30 -4 16 -12 33 -18 37 -7 5 -20 24 -30 43 -36 70
-50 95 -57 100 -3 3 -12 20 -19 38 -8 17 -17 32 -21 32 -5 0 -14 16 -20 35 -6
19 -15 35 -19 35 -4 0 -15 17 -24 38 -9 20 -26 51 -37 67 -11 17 -27 46 -36
65 -9 19 -22 39 -30 43 -8 4 -14 16 -14 26 0 10 -8 29 -17 42 -29 39 -42 62
-59 99 -9 19 -22 38 -29 43 -8 4 -16 20 -20 36 -3 16 -13 32 -21 35 -8 3 -14
10 -14 16 0 12 -86 166 -106 190 -7 8 -16 27 -19 43 -4 15 -13 31 -19 35 -7 4
-20 22 -29 40 -19 35 -36 66 -73 127 -13 22 -32 57 -41 78 -9 20 -19 37 -24
37 -4 0 -12 12 -18 28 -7 15 -23 45 -36 67 -14 22 -31 54 -39 71 -8 17 -22 36
-30 44 -9 7 -16 20 -16 30 0 10 -7 23 -16 30 -8 8 -22 27 -30 44 -8 17 -25 49
-38 71 -14 22 -32 54 -40 70 -9 17 -27 48 -40 70 -14 22 -32 54 -40 70 -9 17
-27 48 -40 70 -14 22 -32 54 -41 70 -8 17 -27 48 -40 70 -14 22 -32 54 -41 70
-8 17 -26 48 -39 70 -14 22 -30 51 -37 65 -6 14 -18 32 -25 40 -7 9 -26 43
-44 75 -17 33 -34 62 -38 65 -3 3 -14 21 -24 40 -9 19 -28 53 -42 75 -13 22
-31 54 -40 70 -42 79 -49 90 -55 95 -4 3 -15 21 -24 40 -9 19 -27 53 -41 75
-13 22 -29 52 -36 68 -6 15 -14 27 -19 27 -4 0 -13 15 -21 33 -7 17 -18 35
-25 39 -6 4 -15 20 -19 35 -3 14 -15 38 -26 51 -10 14 -19 30 -19 37 0 6 -9
20 -20 30 -11 10 -20 24 -20 30 0 7 -6 18 -14 24 -8 7 -18 26 -21 42 -4 16
-12 32 -19 36 -7 5 -18 23 -25 41 -8 17 -17 32 -21 32 -5 0 -13 12 -19 28 -6
15 -22 45 -36 67 -14 22 -33 57 -42 78 -9 20 -19 37 -24 37 -4 0 -12 12 -18
28 -7 15 -25 50 -41 77 -17 28 -34 59 -39 70 -5 12 -16 27 -24 34 -9 7 -19 25
-22 41 -3 16 -13 31 -21 34 -8 3 -14 14 -14 24 0 10 -9 27 -20 37 -11 10 -20
23 -20 29 -1 6 -16 36 -35 66 -19 30 -41 69 -50 85 -8 17 -26 48 -40 70 -13
22 -32 54 -40 70 -9 17 -27 48 -40 70 -13 22 -31 54 -40 70 -9 17 -27 48 -40
70 -14 22 -32 54 -41 70 -8 17 -26 48 -40 70 -13 22 -31 54 -40 70 -8 17 -25
46 -37 66 -31 52 -109 185 -130 222 -10 18 -28 50 -42 72 -13 22 -31 54 -39
70 -9 17 -27 48 -40 70 -14 22 -32 54 -41 70 -8 17 -27 48 -40 70 -14 22 -32
55 -40 73 -8 17 -19 32 -24 32 -5 0 -12 13 -16 29 -3 16 -13 35 -20 41 -8 7
-28 41 -45 76 -18 35 -35 64 -40 64 -4 0 -11 11 -14 24 -3 14 -12 31 -20 39
-8 8 -22 29 -30 48 -9 19 -27 52 -41 74 -13 22 -29 52 -36 68 -6 15 -14 27
-18 27 -5 0 -16 17 -25 38 -19 42 -47 93 -76 137 -11 17 -28 47 -37 68 -9 20
-20 37 -25 37 -4 0 -15 18 -24 40 -9 22 -20 40 -25 40 -5 0 -9 5 -9 11 0 10
-19 44 -87 158 -12 20 -29 53 -38 74 -10 20 -21 37 -25 37 -4 0 -13 12 -19 28
-7 15 -23 45 -36 67 -13 22 -31 54 -40 70 -9 17 -27 48 -40 70 -14 22 -32 54
-41 70 -8 17 -26 48 -39 70 -41 68 -71 119 -95 163 -14 25 -91 158 -117 201
-12 20 -29 50 -37 66 -9 17 -27 48 -40 70 -14 22 -32 54 -40 70 -9 17 -27 48
-41 70 -13 22 -32 54 -40 70 -9 17 -27 48 -41 70 -13 22 -31 54 -39 70 -9 17
-29 50 -45 75 -16 25 -36 59 -45 75 -8 17 -26 48 -39 70 -14 22 -32 54 -40 70
-9 17 -27 48 -40 70 -14 22 -32 54 -40 70 -9 17 -27 48 -40 70 -14 22 -32 54
-40 70 -17 33 -31 55 -58 97 -18 28 -23 59 -11 71 3 4 104 7 223 7 l216 0 25
-32z m17252 5 c12 -7 -2 -56 -18 -66 -7 -4 -16 -20 -20 -36 -3 -16 -13 -32
-21 -35 -8 -3 -14 -14 -14 -24 0 -11 -7 -25 -16 -32 -8 -8 -22 -27 -30 -44 -8
-17 -25 -49 -38 -71 -14 -22 -32 -53 -41 -70 -8 -16 -27 -48 -40 -70 -14 -22
-32 -53 -41 -70 -8 -16 -26 -48 -40 -70 -13 -22 -31 -53 -40 -70 -8 -16 -26
-48 -40 -70 -13 -22 -31 -53 -39 -70 -9 -16 -29 -50 -45 -75 -16 -25 -34 -55
-40 -68 -5 -13 -17 -30 -25 -38 -8 -9 -15 -24 -15 -33 0 -10 -7 -24 -16 -31
-8 -8 -22 -27 -30 -44 -8 -17 -25 -49 -39 -71 -13 -22 -29 -52 -36 -67 -6 -16
-15 -28 -19 -28 -4 0 -15 -17 -25 -37 -9 -21 -26 -54 -38 -75 -60 -100 -87
-149 -87 -157 0 -5 -6 -11 -14 -14 -7 -3 -17 -18 -20 -33 -4 -15 -16 -39 -27
-52 -10 -14 -19 -29 -19 -34 0 -5 -9 -22 -20 -38 -11 -17 -29 -43 -40 -60 -11
-16 -20 -34 -20 -40 0 -5 -9 -19 -20 -30 -11 -11 -20 -28 -20 -38 0 -11 -9
-27 -20 -37 -11 -10 -20 -24 -20 -31 0 -7 -6 -19 -13 -26 -16 -15 -39 -57 -63
-110 -10 -21 -21 -38 -25 -38 -4 0 -13 -16 -19 -35 -6 -19 -15 -35 -20 -35 -4
0 -13 -12 -19 -27 -7 -16 -23 -46 -36 -68 -14 -22 -32 -56 -41 -75 -9 -19 -22
-38 -29 -43 -8 -4 -16 -21 -20 -38 -4 -17 -13 -33 -21 -36 -8 -3 -14 -11 -14
-18 0 -7 -8 -23 -19 -36 -10 -13 -22 -35 -26 -47 -4 -13 -16 -33 -26 -43 -10
-10 -19 -28 -19 -39 0 -11 -5 -20 -11 -20 -5 0 -17 -15 -25 -32 -9 -18 -26
-51 -40 -73 -13 -22 -31 -53 -40 -70 -8 -16 -25 -46 -37 -67 -62 -103 -87
-149 -87 -156 0 -5 -9 -17 -20 -27 -11 -10 -20 -26 -20 -35 0 -10 -7 -23 -16
-30 -8 -8 -22 -27 -29 -44 -15 -32 -27 -52 -57 -98 -10 -15 -18 -34 -18 -41 0
-8 -7 -20 -16 -27 -8 -8 -22 -27 -30 -44 -8 -17 -25 -49 -38 -71 -14 -22 -32
-53 -41 -70 -8 -16 -27 -48 -40 -70 -14 -22 -32 -53 -41 -70 -8 -16 -26 -48
-39 -70 -14 -22 -30 -51 -37 -65 -7 -14 -16 -27 -20 -30 -4 -3 -14 -22 -22
-41 -8 -20 -22 -41 -30 -49 -9 -7 -16 -20 -16 -30 0 -9 -9 -25 -20 -35 -11
-10 -20 -24 -20 -30 0 -7 -9 -24 -20 -38 -11 -14 -20 -30 -20 -36 0 -6 -9 -20
-20 -31 -11 -11 -20 -29 -20 -40 0 -10 -6 -23 -14 -27 -8 -4 -21 -24 -30 -43
-20 -42 -50 -95 -76 -135 -11 -16 -27 -45 -36 -64 -8 -19 -22 -40 -30 -48 -8
-8 -17 -25 -20 -39 -3 -13 -10 -24 -14 -24 -5 0 -12 -10 -16 -22 -4 -13 -15
-35 -25 -50 -11 -16 -28 -41 -39 -57 -10 -16 -22 -40 -25 -54 -4 -14 -13 -28
-20 -31 -7 -2 -16 -18 -20 -35 -4 -17 -11 -31 -16 -31 -5 0 -16 -15 -24 -32
-21 -44 -46 -88 -68 -118 -9 -13 -17 -33 -17 -43 0 -9 -6 -20 -14 -23 -8 -3
-20 -18 -26 -32 -6 -15 -22 -45 -35 -67 -14 -22 -31 -54 -39 -71 -8 -17 -22
-36 -30 -44 -9 -7 -16 -20 -16 -30 0 -9 -9 -27 -20 -40 -11 -13 -20 -28 -20
-35 0 -7 -9 -20 -20 -30 -11 -10 -20 -26 -20 -35 0 -10 -7 -23 -16 -30 -8 -8
-22 -27 -30 -44 -8 -17 -25 -49 -38 -71 -14 -22 -32 -53 -40 -70 -9 -16 -27
-48 -40 -70 -14 -22 -32 -53 -40 -70 -9 -16 -27 -48 -41 -70 -13 -22 -32 -53
-40 -70 -9 -16 -27 -48 -40 -70 -14 -22 -30 -51 -37 -65 -6 -14 -17 -32 -24
-40 -6 -8 -25 -41 -42 -72 -17 -32 -38 -65 -46 -74 -9 -8 -16 -23 -16 -32 0
-10 -9 -25 -20 -35 -11 -9 -20 -25 -20 -35 0 -11 -9 -27 -20 -37 -11 -10 -20
-23 -20 -29 0 -6 -9 -22 -20 -36 -11 -14 -20 -33 -20 -43 0 -10 -7 -20 -15
-23 -8 -3 -19 -21 -25 -40 -6 -19 -15 -34 -19 -34 -4 0 -15 -17 -24 -37 -9
-21 -26 -51 -37 -68 -11 -16 -27 -45 -36 -64 -8 -19 -22 -40 -30 -48 -8 -8
-17 -25 -20 -39 -3 -13 -10 -24 -15 -24 -5 0 -15 -16 -24 -36 -8 -19 -28 -56
-45 -80 -16 -25 -33 -56 -36 -69 -3 -14 -10 -25 -15 -25 -5 0 -16 -17 -24 -37
-9 -21 -19 -40 -23 -43 -4 -3 -13 -16 -20 -30 -24 -45 -47 -85 -65 -110 -9
-13 -17 -32 -17 -42 0 -10 -5 -18 -11 -18 -5 0 -17 -15 -25 -32 -9 -18 -26
-51 -39 -73 -38 -64 -63 -108 -79 -141 -8 -17 -22 -36 -30 -44 -9 -7 -16 -18
-16 -25 0 -7 -9 -24 -20 -38 -11 -14 -20 -32 -20 -40 0 -7 -9 -22 -20 -32 -11
-10 -20 -26 -20 -35 0 -10 -7 -23 -16 -30 -8 -8 -22 -27 -30 -44 -8 -17 -25
-49 -38 -71 -14 -22 -32 -53 -41 -70 -8 -16 -27 -48 -40 -70 -14 -22 -32 -53
-41 -70 -8 -16 -26 -48 -40 -70 -13 -22 -31 -53 -40 -70 -8 -16 -26 -48 -39
-70 -13 -22 -33 -57 -44 -77 -12 -20 -25 -39 -31 -43 -5 -3 -10 -13 -10 -21 0
-8 -9 -24 -20 -36 -11 -12 -20 -30 -20 -39 0 -10 -6 -22 -14 -26 -8 -4 -21
-24 -30 -43 -21 -43 -50 -95 -76 -135 -11 -16 -28 -47 -37 -67 -9 -21 -19 -38
-23 -38 -4 0 -15 -17 -24 -37 -9 -21 -25 -51 -36 -68 -11 -16 -28 -47 -40 -67
-11 -20 -24 -39 -29 -42 -5 -4 -12 -19 -16 -35 -3 -16 -12 -32 -20 -34 -7 -3
-16 -20 -20 -37 -4 -17 -13 -34 -21 -37 -8 -3 -14 -11 -14 -18 0 -7 -8 -23
-19 -36 -10 -13 -22 -35 -26 -47 -4 -13 -16 -33 -26 -43 -10 -10 -19 -28 -19
-39 0 -11 -5 -20 -11 -20 -5 0 -17 -15 -25 -33 -9 -17 -26 -50 -39 -72 -45
-75 -64 -110 -81 -147 -9 -21 -20 -38 -25 -38 -4 0 -12 -12 -18 -27 -7 -16
-23 -46 -36 -68 -14 -22 -32 -54 -40 -72 -8 -17 -19 -34 -25 -38 -6 -4 -17
-21 -25 -38 -8 -18 -26 -50 -39 -72 -14 -22 -31 -54 -39 -71 -8 -17 -20 -34
-25 -38 -6 -3 -13 -20 -17 -36 -4 -17 -11 -30 -16 -30 -6 0 -15 -13 -20 -30
-9 -26 -13 -28 -31 -17 -10 7 -26 26 -34 42 -8 17 -25 48 -38 70 -14 22 -31
55 -40 73 -8 17 -20 32 -25 32 -6 0 -11 8 -11 18 0 10 -8 29 -17 42 -23 33
-49 79 -63 112 -6 14 -17 29 -25 32 -7 2 -16 19 -20 36 -4 17 -13 34 -20 36
-7 3 -16 16 -19 29 -4 14 -16 40 -29 58 -47 72 -82 133 -92 160 -6 15 -15 31
-22 35 -6 4 -18 23 -27 42 -9 19 -25 49 -36 65 -26 40 -56 93 -76 135 -9 19
-22 39 -30 43 -8 4 -14 17 -14 28 0 10 -9 27 -20 36 -11 10 -20 24 -20 31 0 8
-9 25 -20 39 -11 14 -20 31 -20 38 0 6 -9 20 -19 29 -11 10 -23 31 -26 47 -4
16 -11 29 -16 29 -5 0 -16 15 -24 33 -8 17 -26 50 -39 72 -14 22 -31 54 -39
71 -8 17 -20 34 -25 38 -6 3 -13 20 -17 36 -4 17 -11 30 -16 30 -6 0 -17 15
-25 33 -9 17 -26 50 -40 72 -13 22 -31 54 -40 70 -8 17 -26 48 -40 70 -13 22
-31 54 -40 70 -8 17 -26 48 -40 70 -13 22 -30 54 -38 71 -8 17 -22 36 -30 44
-9 7 -16 20 -16 30 0 9 -9 25 -20 35 -11 10 -20 26 -20 35 0 10 -7 23 -16 30
-8 8 -21 28 -29 47 -8 18 -19 33 -24 33 -6 0 -11 8 -11 19 0 10 -8 29 -18 42
-10 13 -23 35 -30 49 -7 14 -23 43 -37 65 -13 22 -30 55 -39 73 -8 17 -19 32
-24 32 -6 0 -13 11 -16 25 -3 13 -17 40 -30 60 -14 20 -34 56 -46 80 -12 25
-26 45 -31 45 -5 0 -9 9 -9 20 0 11 -9 29 -19 39 -10 10 -22 30 -26 43 -4 12
-15 32 -25 43 -10 11 -21 30 -25 43 -3 12 -10 22 -15 22 -5 0 -11 14 -15 31
-4 17 -13 33 -20 36 -8 2 -19 20 -25 39 -6 19 -15 34 -20 34 -4 0 -13 14 -19
32 -6 17 -19 40 -28 50 -15 17 -15 20 4 46 11 15 23 37 27 50 4 12 11 22 16
22 5 0 14 16 20 35 6 19 15 35 19 35 4 0 15 17 24 38 9 20 28 55 42 77 13 22
29 52 35 67 6 14 17 29 24 31 8 3 16 17 20 32 4 15 15 39 24 54 27 40 41 64
54 91 7 14 18 31 25 38 7 7 16 24 19 37 3 13 12 26 19 28 7 3 15 17 19 32 4
15 16 40 26 56 11 16 29 42 40 59 11 16 20 34 20 40 0 5 9 19 20 30 11 11 20
29 20 40 0 10 6 23 14 27 8 4 21 24 30 43 9 19 25 50 36 68 11 17 29 47 40 65
11 17 27 48 36 67 9 19 20 37 24 40 4 3 15 21 24 40 9 19 25 49 36 65 25 38
50 81 75 131 11 21 25 42 31 46 7 4 15 19 18 33 4 15 22 48 41 75 19 28 35 53
35 58 0 4 11 23 25 42 14 19 25 42 25 51 0 9 6 19 14 22 8 3 17 19 21 36 3 16
13 35 22 42 8 7 19 22 25 34 5 11 20 38 33 60 14 22 32 56 41 75 9 19 20 37
24 40 4 3 15 21 24 40 9 19 25 49 36 65 11 17 27 45 36 64 8 19 22 40 30 48 8
8 14 21 14 28 0 7 6 20 14 28 8 7 28 40 45 72 18 33 38 66 46 75 7 8 16 27 20
42 4 15 13 29 20 32 7 2 16 18 20 35 4 17 10 31 15 31 4 0 18 20 30 45 12 24
32 60 46 80 13 20 27 47 30 60 3 14 10 25 16 25 5 0 16 15 24 33 8 17 26 50
39 72 13 22 30 51 37 65 7 14 20 36 30 49 10 13 18 32 18 42 0 11 5 19 11 19
5 0 17 15 25 33 9 17 26 50 40 72 13 22 30 54 38 71 8 17 22 36 30 44 9 7 16
21 16 31 0 11 9 27 20 36 11 10 20 23 20 29 0 6 9 23 20 37 11 14 20 32 20 40
0 7 9 22 20 32 11 10 20 26 20 35 0 9 9 25 19 34 26 23 36 72 21 91 -11 13
-353 15 -2669 15 -2121 0 -2661 -3 -2674 -13 -15 -11 -16 -17 -6 -47 7 -19 20
-46 29 -60 31 -49 41 -65 56 -100 9 -19 22 -39 30 -43 8 -4 14 -17 14 -27 0
-10 5 -22 11 -26 6 -3 17 -21 25 -38 8 -17 28 -51 44 -76 16 -25 36 -58 45
-75 28 -56 90 -163 98 -172 5 -4 15 -21 23 -38 8 -16 25 -48 39 -70 13 -22 32
-53 40 -70 9 -16 27 -48 41 -70 13 -22 31 -53 40 -70 8 -16 26 -48 40 -70 13
-22 31 -55 39 -72 8 -18 19 -33 24 -33 5 0 12 -13 16 -29 3 -16 15 -37 26 -47
10 -9 19 -25 19 -34 0 -9 9 -25 20 -35 11 -10 20 -26 20 -35 0 -9 9 -25 20
-35 11 -10 20 -23 20 -30 0 -7 9 -22 20 -35 11 -13 20 -31 20 -40 0 -10 7 -23
16 -30 8 -8 22 -27 30 -44 8 -17 25 -49 39 -71 13 -22 29 -52 36 -67 6 -16 15
-28 19 -28 5 0 14 -16 20 -36 7 -19 18 -38 26 -41 8 -3 14 -12 14 -21 0 -9 10
-32 23 -51 41 -65 47 -76 62 -108 9 -18 19 -33 24 -33 5 0 12 -14 16 -31 4
-17 13 -33 20 -35 7 -3 16 -15 19 -27 3 -12 21 -46 41 -75 19 -30 38 -65 41
-78 4 -13 11 -28 18 -32 6 -4 19 -23 29 -42 9 -19 26 -48 37 -65 27 -41 56
-93 76 -135 9 -19 22 -39 30 -43 8 -4 14 -16 14 -26 0 -10 8 -29 18 -42 27
-38 41 -62 57 -95 7 -17 21 -36 29 -44 9 -7 16 -20 16 -30 0 -9 9 -25 20 -35
11 -10 20 -23 20 -29 1 -6 16 -36 35 -66 19 -30 41 -68 50 -85 8 -16 26 -48
39 -70 14 -22 32 -53 40 -70 8 -16 27 -48 40 -70 14 -22 32 -53 41 -70 9 -16
27 -48 40 -70 14 -22 32 -53 41 -70 8 -16 26 -48 40 -70 13 -22 30 -54 38 -71
8 -17 22 -36 30 -44 9 -7 16 -20 16 -30 0 -9 9 -25 20 -35 11 -10 20 -25 20
-32 0 -8 9 -26 20 -40 11 -14 20 -31 20 -38 0 -7 7 -18 16 -25 8 -8 22 -27 30
-44 8 -17 25 -49 38 -71 14 -22 32 -53 40 -70 9 -16 27 -48 40 -70 14 -22 32
-53 40 -70 9 -16 27 -48 41 -70 13 -22 31 -55 40 -72 8 -18 19 -33 24 -33 5 0
12 -13 16 -30 4 -16 11 -33 17 -36 5 -4 17 -21 25 -38 8 -17 25 -49 39 -71 13
-22 31 -55 39 -72 8 -18 19 -33 24 -33 5 0 12 -13 16 -29 3 -16 13 -35 21 -42
8 -7 22 -26 30 -43 8 -17 25 -49 39 -71 13 -22 29 -52 36 -67 6 -16 14 -28 18
-28 5 0 15 -17 24 -37 9 -21 28 -56 42 -78 13 -22 29 -52 36 -67 6 -16 15 -28
19 -28 5 0 14 -16 20 -36 7 -19 18 -38 26 -41 8 -3 14 -13 14 -22 0 -9 8 -28
17 -41 18 -25 41 -65 65 -110 7 -14 16 -27 20 -30 4 -3 14 -22 23 -43 8 -20
19 -37 24 -37 5 0 12 -14 16 -31 4 -17 13 -33 20 -35 8 -3 18 -18 24 -32 6
-15 22 -45 36 -67 13 -22 31 -57 40 -77 10 -21 21 -38 25 -38 5 0 14 -16 20
-35 6 -19 15 -35 20 -35 4 0 13 -12 20 -27 17 -41 46 -92 64 -112 9 -10 16
-25 16 -34 0 -10 9 -25 20 -34 11 -10 20 -24 20 -31 0 -8 8 -26 18 -40 35 -54
43 -68 57 -98 7 -17 21 -36 29 -44 9 -7 16 -20 16 -30 0 -9 9 -25 20 -35 11
-10 20 -23 20 -29 1 -6 16 -36 35 -66 19 -30 41 -68 50 -85 8 -16 26 -48 39
-70 14 -22 32 -53 41 -70 8 -16 27 -48 40 -70 13 -22 31 -53 40 -70 9 -16 27
-48 40 -70 14 -22 32 -53 41 -70 8 -16 26 -48 40 -70 13 -22 30 -54 38 -71 8
-17 22 -36 30 -44 9 -7 16 -20 16 -30 0 -9 9 -25 20 -35 11 -10 20 -24 20 -30
0 -7 9 -24 20 -38 11 -14 20 -32 20 -40 0 -8 7 -20 16 -27 8 -8 22 -27 30 -44
8 -17 25 -49 38 -71 14 -22 31 -55 40 -72 8 -18 20 -33 25 -33 6 0 11 -8 11
-19 0 -10 8 -29 18 -42 10 -13 23 -35 30 -49 7 -14 23 -43 37 -65 13 -22 31
-55 40 -72 8 -18 19 -33 24 -33 5 0 12 -12 16 -27 3 -14 15 -38 26 -51 10 -14
19 -30 19 -37 0 -7 6 -18 14 -24 43 -36 36 -99 -22 -185 -18 -26 -34 -57 -38
-71 -3 -13 -12 -26 -19 -29 -7 -2 -16 -18 -20 -35 -4 -17 -12 -34 -18 -38 -7
-5 -18 -19 -25 -33 -12 -26 -22 -42 -59 -101 -13 -19 -23 -42 -23 -51 0 -9 -6
-18 -14 -21 -8 -3 -19 -22 -26 -41 -6 -20 -15 -36 -20 -36 -4 0 -13 -12 -19
-27 -7 -16 -23 -46 -36 -68 -14 -22 -32 -56 -41 -75 -9 -19 -20 -37 -24 -40
-4 -3 -22 -32 -39 -65 -18 -32 -38 -67 -46 -75 -8 -9 -15 -24 -15 -32 0 -9 -7
-21 -16 -28 -8 -8 -22 -27 -30 -44 -8 -17 -25 -49 -38 -71 -14 -22 -32 -53
-40 -70 -9 -16 -27 -48 -41 -70 -13 -22 -31 -53 -40 -70 -9 -16 -27 -48 -40
-70 -13 -22 -32 -53 -40 -70 -9 -16 -27 -48 -41 -70 -13 -22 -31 -53 -40 -70
-8 -16 -26 -48 -40 -70 -13 -22 -30 -54 -38 -71 -8 -17 -22 -36 -30 -44 -9 -7
-16 -20 -16 -30 0 -9 -9 -25 -20 -35 -11 -10 -20 -24 -20 -30 0 -7 -9 -24 -20
-38 -11 -14 -20 -31 -20 -39 0 -7 -9 -21 -20 -31 -11 -9 -20 -26 -20 -36 0
-11 -6 -24 -14 -28 -8 -4 -21 -24 -30 -43 -9 -19 -27 -53 -41 -75 -13 -22 -29
-52 -36 -68 -6 -15 -15 -27 -19 -27 -5 0 -14 -16 -20 -36 -7 -19 -18 -38 -25
-40 -7 -3 -16 -17 -20 -31 -3 -14 -14 -37 -23 -52 -27 -40 -41 -64 -54 -91 -7
-14 -18 -28 -25 -33 -6 -4 -14 -21 -18 -38 -4 -17 -13 -33 -20 -35 -7 -3 -16
-16 -19 -29 -3 -13 -12 -30 -19 -37 -7 -7 -18 -24 -25 -38 -7 -14 -24 -43 -38
-65 -13 -22 -32 -57 -41 -77 -9 -21 -20 -38 -24 -38 -4 0 -13 -16 -19 -35 -6
-19 -15 -35 -20 -35 -4 0 -13 -12 -19 -28 -7 -15 -23 -45 -36 -67 -14 -22 -33
-56 -42 -75 -10 -19 -24 -41 -30 -48 -7 -7 -13 -19 -13 -26 0 -7 -9 -21 -20
-31 -11 -10 -20 -24 -20 -32 0 -22 -15 -15 -28 15 -6 15 -21 41 -32 57 -26 40
-55 92 -76 135 -9 19 -22 39 -30 43 -8 4 -14 16 -14 25 0 9 -9 28 -20 42 -11
14 -20 30 -20 36 0 6 -9 19 -20 29 -11 10 -20 26 -20 35 0 9 -9 25 -20 35 -11
10 -20 26 -20 36 0 10 -8 26 -18 36 -10 10 -23 29 -30 43 -7 14 -23 43 -37 65
-13 22 -31 54 -39 70 -9 17 -27 48 -40 70 -14 22 -32 54 -41 70 -8 17 -27 48
-40 70 -14 22 -32 54 -41 70 -8 17 -26 48 -40 70 -13 22 -31 54 -40 70 -8 17
-26 48 -40 70 -13 22 -30 54 -38 71 -8 17 -22 36 -30 44 -9 7 -16 20 -16 30 0
9 -9 25 -20 35 -11 10 -20 23 -20 29 -1 6 -16 36 -35 66 -19 30 -41 69 -50 85
-8 17 -26 48 -39 70 -14 22 -32 54 -40 70 -9 17 -27 48 -40 70 -14 22 -32 54
-41 70 -8 17 -27 48 -40 70 -14 22 -32 55 -40 73 -8 17 -19 32 -24 32 -5 0
-12 13 -16 29 -3 16 -15 37 -26 47 -10 9 -19 23 -19 29 0 7 -9 24 -20 38 -11
14 -20 32 -20 41 0 9 -7 19 -15 22 -8 3 -19 21 -25 40 -6 19 -15 34 -19 34 -4
0 -16 17 -25 38 -19 42 -47 92 -76 137 -11 17 -27 46 -36 65 -9 19 -22 39 -30
43 -8 4 -14 16 -14 26 0 10 -9 30 -20 44 -11 14 -20 28 -20 31 0 4 -9 20 -20
36 -11 17 -29 43 -40 59 -10 16 -22 41 -26 55 -3 14 -10 26 -15 26 -5 0 -16
17 -24 37 -9 21 -19 40 -23 43 -4 3 -13 16 -20 30 -18 35 -48 88 -77 135 -14
22 -32 57 -41 78 -10 20 -20 37 -25 37 -4 0 -12 12 -18 28 -7 15 -23 45 -36
67 -14 22 -32 56 -41 75 -9 19 -22 39 -30 43 -8 4 -14 16 -14 26 0 10 -7 24
-15 31 -8 6 -17 21 -21 33 -4 12 -15 34 -25 49 -11 16 -28 41 -39 58 -11 16
-20 36 -20 43 0 8 -7 20 -16 27 -8 8 -22 27 -30 44 -16 33 -41 77 -79 141 -13
22 -31 54 -39 70 -9 17 -27 48 -41 70 -13 22 -31 55 -40 73 -8 17 -19 32 -24
32 -5 0 -12 12 -15 26 -4 14 -15 38 -24 53 -31 46 -42 65 -57 99 -9 17 -19 32
-24 32 -5 0 -12 14 -16 31 -4 17 -13 33 -20 36 -8 2 -17 17 -20 33 -3 16 -13
34 -21 41 -8 7 -22 26 -30 43 -25 53 -47 91 -54 96 -4 3 -15 21 -24 40 -9 19
-27 53 -40 75 -14 22 -32 54 -41 70 -42 79 -49 90 -55 95 -4 3 -15 21 -24 40
-17 38 -23 48 -78 133 -21 32 -38 61 -38 66 0 5 -9 19 -19 33 -11 13 -23 37
-27 52 -3 15 -12 30 -19 33 -7 2 -16 15 -19 28 -3 13 -12 30 -19 37 -7 7 -18
24 -25 38 -7 14 -23 43 -37 65 -14 22 -32 57 -41 78 -10 20 -20 37 -25 37 -4
0 -12 12 -18 28 -7 15 -23 45 -36 67 -14 22 -31 54 -39 71 -8 17 -22 36 -30
44 -9 7 -16 21 -16 31 0 9 -7 24 -15 33 -8 8 -20 25 -25 38 -6 13 -24 43 -40
68 -16 25 -36 59 -45 75 -8 17 -26 48 -39 70 -13 22 -34 59 -46 82 -12 23 -31
57 -43 75 -12 18 -28 44 -35 58 -7 14 -24 43 -37 65 -14 22 -32 54 -41 70 -8
17 -26 48 -40 70 -13 22 -30 54 -38 71 -8 17 -22 36 -30 44 -9 7 -16 19 -16
27 0 7 -8 26 -18 41 -30 46 -42 66 -57 98 -7 17 -21 36 -29 44 -9 7 -16 20
-16 30 0 9 -9 25 -20 35 -11 10 -20 23 -20 29 -1 6 -16 36 -35 66 -19 30 -41
69 -50 85 -8 17 -26 48 -40 70 -13 22 -29 52 -36 68 -6 15 -15 27 -19 27 -5 0
-14 16 -20 36 -7 19 -18 38 -26 41 -8 3 -14 13 -14 23 0 9 -8 28 -18 41 -10
13 -34 51 -52 84 -19 33 -37 62 -41 65 -4 3 -11 18 -14 33 -4 15 -12 31 -19
35 -6 4 -20 25 -31 46 -25 50 -50 93 -75 131 -11 17 -27 45 -36 64 -8 19 -22
40 -30 48 -8 8 -14 21 -14 28 0 7 -6 20 -13 27 -14 14 -35 50 -61 104 -8 17
-22 36 -30 44 -9 7 -16 21 -16 31 0 11 -9 27 -20 36 -11 10 -20 25 -20 35 0 9
-4 19 -9 23 -6 3 -29 40 -53 81 -24 42 -53 93 -65 113 -12 20 -29 50 -37 66
-9 17 -27 48 -40 70 -14 22 -32 54 -41 70 -8 17 -27 48 -40 70 -14 22 -32 54
-41 70 -8 17 -26 48 -40 70 -13 22 -30 54 -38 71 -8 17 -22 36 -30 44 -9 7
-16 19 -16 27 0 7 -8 26 -18 41 -30 46 -42 66 -57 98 -7 17 -21 36 -29 44 -9
7 -16 20 -16 30 0 10 -7 23 -16 30 -8 8 -22 27 -30 44 -8 17 -25 49 -38 71
-14 22 -32 54 -40 70 -9 17 -27 48 -40 70 -14 22 -32 54 -41 70 -8 17 -27 48
-40 70 -13 22 -31 54 -40 70 -9 17 -27 48 -40 70 -14 22 -32 55 -42 73 -9 17
-20 32 -24 32 -4 0 -10 11 -13 24 -3 14 -12 31 -19 38 -6 7 -21 31 -32 52 -25
50 -50 93 -75 131 -11 17 -27 46 -36 65 -9 19 -20 37 -24 40 -4 3 -15 21 -24
40 -20 42 -49 94 -76 135 -11 17 -28 46 -37 65 -10 19 -23 38 -30 43 -6 4 -14
21 -18 38 -4 17 -13 33 -20 35 -7 3 -16 17 -19 30 -4 14 -22 47 -41 74 -19 27
-37 60 -41 74 -3 14 -10 26 -15 26 -5 0 -16 15 -24 33 -16 33 -46 85 -84 147
-11 19 -28 49 -37 65 -8 17 -26 48 -40 70 -13 22 -31 54 -40 70 -8 17 -26 48
-40 70 -13 22 -30 54 -38 71 -8 17 -22 36 -30 44 -9 7 -16 21 -16 31 0 10 -4
20 -9 24 -9 5 -38 54 -114 188 -10 18 -28 50 -42 72 -13 22 -31 54 -39 70 -9
17 -27 48 -40 70 -14 22 -32 54 -41 70 -8 17 -27 48 -40 70 -14 22 -32 55 -40
73 -8 17 -19 32 -24 32 -5 0 -12 13 -16 29 -3 16 -15 37 -26 47 -10 9 -19 21
-19 26 0 11 -91 171 -101 178 -4 3 -14 21 -23 40 -9 19 -27 53 -41 75 -13 22
-29 52 -36 68 -6 15 -15 27 -19 27 -5 0 -14 16 -20 35 -6 19 -15 35 -19 35 -4
0 -15 17 -24 38 -9 20 -26 51 -37 67 -11 17 -28 46 -37 65 -10 19 -21 37 -25
40 -4 3 -14 22 -23 43 -8 20 -19 37 -24 37 -5 0 -12 11 -15 25 -3 13 -21 46
-39 72 -38 57 -60 95 -82 146 -10 20 -21 37 -25 37 -4 0 -14 17 -23 38 -9 20
-26 51 -37 67 -29 44 -57 95 -76 138 -9 20 -20 37 -25 37 -4 0 -12 12 -18 28
-6 15 -22 45 -36 67 -14 22 -32 54 -39 71 -8 17 -22 36 -30 44 -9 7 -16 20
-16 30 0 9 -9 25 -20 35 -11 10 -20 22 -20 27 0 7 -25 53 -87 156 -12 21 -29
51 -37 67 -9 17 -27 48 -41 70 -13 22 -31 54 -40 70 -9 17 -27 48 -40 70 -13
22 -32 54 -40 70 -9 17 -27 48 -41 70 -13 22 -31 54 -39 70 -9 17 -29 50 -45
75 -16 25 -36 59 -44 75 -9 17 -21 37 -27 46 -7 9 -9 24 -5 34 6 16 420 17
8414 10 4624 -4 8411 -10 8415 -12z"/>
</g>
</svg>
